<svg width="28" height="28" viewBox="0 0 1024 1024" fill="none" xmlns="http://www.w3.org/2000/svg">
  <rect width="1024" height="1024" rx="200" fill="#8b7ef0"/>
  <path d="M351.602 477.319C351.602 444.117 368.28 419.139 376.618 410.801L376.62 177.701C376.62 160.745 362.875 147 345.919 147H143.52C126.565 147 112.819 160.745 112.819 177.701V847.436C112.819 863.764 126.056 877 142.383 877H347.056C363.384 877 376.62 863.764 376.62 847.436V669.484L644.969 523.371V847.436C644.969 863.764 658.205 877 674.533 877H882.617C898.945 877 912.181 863.764 912.181 847.436V177.701C912.181 160.745 898.435 147 881.48 147H675.67C658.714 147 644.969 160.745 644.969 177.701V402.841V447.187L531.262 509.726C422.103 579.769 390.265 564.305 351.602 560.326C276.099 560.326 222.734 623.243 205.489 654.702C200.942 513.137 297.025 477.319 351.602 477.319Z" fill="white"/>
  <path d="M205.489 654.702C222.734 623.243 276.099 560.326 351.602 560.326C390.265 564.305 422.103 579.769 531.262 509.726L644.969 447.187V402.841C574.47 331.206 385.83 331.774 365.818 493.238C320.902 487.932 225.954 512.796 205.489 654.702Z" fill="#8b7ef0"/>
</svg>
